<svg xmlns="http://www.w3.org/2000/svg" xmlns:xlink="http://www.w3.org/1999/xlink" width="128" height="128" viewBox="0 0 128 128">
  <defs>
    <clipPath id="clip-Header_Logo">
      <rect width="128" height="128"/>
    </clipPath>
  </defs>
  <g id="Header_Logo" data-name="Header Logo" clip-path="url(#clip-Header_Logo)">
    <g id="Group_17747" data-name="Group 17747" transform="translate(-227.305 6.417)">
      <path id="Union_23" data-name="Union 23" d="M-322.342-45.125l2.515-2.7h5.008a1.333,1.333,0,0,0,1.288-1.369v-5.386l2.541-2.734v9.6a2.518,2.518,0,0,1-2.434,2.587Zm-111.941,0a2.517,2.517,0,0,1-2.434-2.588v-9.6l2.541,2.734v5.384a1.331,1.331,0,0,0,1.286,1.369h5.01l2.515,2.7Zm120.754-81.308v-5.322a1.332,1.332,0,0,0-1.288-1.369h-5.069l-2.568-2.7h9.029a2.519,2.519,0,0,1,2.436,2.588v9.476Zm-123.188-6.8a2.518,2.518,0,0,1,2.436-2.588h9.029l-2.559,2.7h-5.076a1.333,1.333,0,0,0-1.288,1.369v5.322l-2.541,2.673Z" transform="translate(665.717 148.825)"/>
      <g id="Group_10413" data-name="Group 10413" transform="translate(245.215 31.528)">
        <path id="Path_1668" data-name="Path 1668" d="M7.365,0H85.928a7.34,7.34,0,0,1,7.365,7.315V46.328a7.34,7.34,0,0,1-7.365,7.315H7.365A7.34,7.34,0,0,1,0,46.328V7.315A7.34,7.34,0,0,1,7.365,0Z" transform="translate(0 0)" fill="#30619a"/>
        <path id="Path_1580" data-name="Path 1580" d="M78.144,85.332a7.79,7.79,0,1,1-7.858,7.79A7.835,7.835,0,0,1,78.144,85.332Zm14.144,28.823a2.348,2.348,0,0,1-2.357,2.337H66.357A2.348,2.348,0,0,1,64,114.155V112.6a8.614,8.614,0,0,1,8.644-8.569h11a8.614,8.614,0,0,1,8.644,8.569Zm43.141,2.337h-34.5a2.337,2.337,0,1,1,0-4.674h34.5a2.337,2.337,0,1,1,0,4.674Zm0-12.464h-34.5a2.337,2.337,0,1,1,0-4.674h34.5a2.337,2.337,0,1,1,0,4.674ZM116.255,91.564H100.932a2.337,2.337,0,1,1,0-4.674h15.323a2.337,2.337,0,1,1,0,4.674Zm0,0" transform="translate(-54.247 -74.091)" fill="#fff"/>
      </g>
    </g>
  </g>
</svg>
